<svg xmlns="http://www.w3.org/2000/svg" width="446.499" height="142.823" viewBox="0 0 446.499 142.823"><g transform="translate(-81.357 -164.087)"><g transform="translate(259.836 196.934)"><path d="M417.221,239.567l-.427,1.413.425-1.413c-6.469-1.959-6.983-3.213-6.983-4.65,0-1.236,1.033-2.679,3.944-2.679a6.385,6.385,0,0,1,6.121,3.5,1.476,1.476,0,0,0,2.019.527l5.851-3.424a1.476,1.476,0,0,0,.539-2,15.823,15.823,0,0,0-14.53-8.307c-6.73,0-13.882,4.422-13.882,12.617,0,6.466,3.623,10.236,12.121,12.605,6.049,1.67,8.062,2.593,8.062,4.76,0,2.53-3.191,2.908-5.094,2.908a8,8,0,0,1-7.632-4.36,1.476,1.476,0,0,0-2.036-.57l-6.067,3.517a1.476,1.476,0,0,0-.6,1.887c2.661,5.869,8.511,9.236,16.051,9.236,9.306,0,15.319-5,15.319-12.732C430.42,244.2,424.7,241.825,417.221,239.567Z" transform="translate(-398.918 -222.53)" fill="#666"/><path d="M495.737,223.962h-6.986a1.476,1.476,0,0,0-1.476,1.476v13.934H475.362V225.438a1.476,1.476,0,0,0-1.476-1.476H466.9a1.476,1.476,0,0,0-1.476,1.476v38.037a1.476,1.476,0,0,0,1.476,1.476h6.986a1.476,1.476,0,0,0,1.476-1.476V248.966h11.913v14.509a1.476,1.476,0,0,0,1.476,1.476h6.986a1.476,1.476,0,0,0,1.476-1.476V225.438A1.476,1.476,0,0,0,495.737,223.962Z" transform="translate(-428.046 -223.157)" fill="#666"/><g transform="translate(1.72)"><path d="M555.273,222.53a21.3,21.3,0,1,0,21.3,21.3A21.073,21.073,0,0,0,555.273,222.53Zm0,32.891c-6.583,0-11.361-4.874-11.361-11.591s4.778-11.591,11.361-11.591,11.361,4.874,11.361,11.591S561.856,255.421,555.273,255.421Z" transform="translate(-459.788 -222.53)" fill="#666"/><path d="M637.366,223.962H623.235a1.476,1.476,0,0,0-1.477,1.476v38.037a1.476,1.476,0,0,0,1.477,1.476h6.986a1.476,1.476,0,0,0,1.476-1.476V252.3h5.669a14.172,14.172,0,1,0,0-28.339Zm0,18.976H631.7v-9.612h5.669a4.815,4.815,0,0,1,0,9.612Z" transform="translate(-498.236 -223.157)" fill="#666"/><path d="M701.824,223.962H687.693a1.476,1.476,0,0,0-1.476,1.476v38.037a1.476,1.476,0,0,0,1.476,1.476h6.986a1.476,1.476,0,0,0,1.476-1.476V252.3h5.669a14.172,14.172,0,1,0,0-28.339Zm0,18.976h-5.669v-9.612h5.669a4.815,4.815,0,0,1,0,9.612Z" transform="translate(-526.467 -223.157)" fill="#77932c"/><path d="M780.476,223.962H773.49a1.476,1.476,0,0,0-1.476,1.476v25.344c0,3.544-1.948,5.266-5.956,5.266s-5.956-1.723-5.956-5.266V225.438a1.476,1.476,0,0,0-1.476-1.476h-6.986a1.476,1.476,0,0,0-1.476,1.476v26.149c0,8.475,6.388,14.169,15.895,14.169s15.895-5.694,15.895-14.169V225.438A1.476,1.476,0,0,0,780.476,223.962Z" transform="translate(-554.473 -223.157)" fill="#77932c"/><path d="M847.855,244.154l-.615-.491.529-.582a10.434,10.434,0,0,0,2.7-7.249c0-6.988-5.378-11.87-13.077-11.87H822.748a1.476,1.476,0,0,0-1.476,1.476v38.037a1.476,1.476,0,0,0,1.476,1.476h15.8c7.869,0,13.365-5,13.365-12.157A10.672,10.672,0,0,0,847.855,244.154ZM837.4,239.718H831.21v-6.392H837.4a2.968,2.968,0,0,1,3.138,3.2A3.031,3.031,0,0,1,837.4,239.718Zm-6.186,8.9h7.336a3.484,3.484,0,0,1,0,6.967H831.21Z" transform="translate(-585.617 -223.157)" fill="#77932c"/><g transform="translate(0 55.706)"><path d="M412.087,339.916a1,1,0,0,1-.572.813,6.866,6.866,0,0,1-3.845.967c-3.582,0-5.691-2.131-5.691-5.823,0-2.966,1.6-5.823,5.252-5.823,3.384,0,5.229,2.615,5.229,5.537a.963.963,0,0,1-1.01.989H404c.22,1.977,1.473,3.252,3.845,3.252a5.979,5.979,0,0,0,2.966-.681.807.807,0,0,1,.4-.088A.862.862,0,0,1,412.087,339.916ZM404,334.95h6.482a3.241,3.241,0,0,0-6.482,0Z" transform="translate(-401.979 -325.326)" fill="#666"/><path d="M432.541,338.731a.873.873,0,0,1-.9.879h-4.153a.855.855,0,0,1-.879-.879.873.873,0,0,1,.879-.9h4.153A.891.891,0,0,1,432.541,338.731Z" transform="translate(-412.766 -328.734)" fill="#666"/><path d="M453.111,339.872a.915.915,0,0,1-.439.769,6.236,6.236,0,0,1-3.582,1.054,5.823,5.823,0,1,1,0-11.646,6.236,6.236,0,0,1,3.582,1.055.914.914,0,0,1,.439.769.9.9,0,0,1-.835.879.847.847,0,0,1-.483-.132,4.836,4.836,0,0,0-2.527-.7,3.956,3.956,0,1,0,0,7.911,4.831,4.831,0,0,0,2.527-.7.847.847,0,0,1,.483-.132A.9.9,0,0,1,453.111,339.872Z" transform="translate(-420.043 -325.326)" fill="#666"/><path d="M476.912,335.873c0,3.472-2.241,5.823-5.625,5.823-3.406,0-5.625-2.351-5.625-5.823s2.219-5.823,5.625-5.823C474.671,330.05,476.912,332.4,476.912,335.873Zm-2-.022c0-2.9-1.955-3.977-3.625-3.977-1.692,0-3.626,1.077-3.626,3.977,0,2.922,1.934,4.021,3.626,4.021C472.957,339.872,474.912,338.773,474.912,335.851Z" transform="translate(-429.87 -325.326)" fill="#666"/><path d="M509.016,334.269V340.6a1,1,0,0,1-1.011.989.985.985,0,0,1-.989-.989v-5.932c0-1.846-.571-2.769-2.24-2.769a3.646,3.646,0,0,0-3.164,2.11V340.6a1,1,0,0,1-1.011.989.984.984,0,0,1-.989-.989v-5.932c0-1.846-.572-2.769-2.241-2.769a3.647,3.647,0,0,0-3.164,2.11V340.6a1,1,0,0,1-1.011.989.985.985,0,0,1-.989-.989v-9.426a1,1,0,0,1,.989-1.011,1.022,1.022,0,0,1,1.011,1.011v.9a4.318,4.318,0,0,1,3.735-2.022,3.571,3.571,0,0,1,3.362,2.263,4.462,4.462,0,0,1,4.043-2.263C507.94,330.05,509.016,332.313,509.016,334.269Z" transform="translate(-441.496 -325.326)" fill="#666"/><path d="M546.507,334.269V340.6a1,1,0,0,1-1.011.989.985.985,0,0,1-.989-.989v-5.932c0-1.846-.571-2.769-2.24-2.769a3.646,3.646,0,0,0-3.164,2.11V340.6a1,1,0,0,1-1.011.989.984.984,0,0,1-.989-.989v-5.932c0-1.846-.572-2.769-2.241-2.769a3.647,3.647,0,0,0-3.164,2.11V340.6a1,1,0,0,1-1.011.989.985.985,0,0,1-.989-.989v-9.426a1,1,0,0,1,.989-1.011,1.022,1.022,0,0,1,1.011,1.011v.9a4.318,4.318,0,0,1,3.735-2.022,3.571,3.571,0,0,1,3.362,2.263,4.462,4.462,0,0,1,4.043-2.263C545.431,330.05,546.507,332.313,546.507,334.269Z" transform="translate(-457.916 -325.326)" fill="#666"/><path d="M576.124,339.916a1,1,0,0,1-.571.813,6.87,6.87,0,0,1-3.846.967c-3.582,0-5.691-2.131-5.691-5.823,0-2.966,1.6-5.823,5.252-5.823,3.383,0,5.229,2.615,5.229,5.537a.964.964,0,0,1-1.011.989h-7.449c.219,1.977,1.472,3.252,3.845,3.252a5.983,5.983,0,0,0,2.967-.681.8.8,0,0,1,.4-.088A.862.862,0,0,1,576.124,339.916Zm-8.086-4.966h6.481a3.241,3.241,0,0,0-6.481,0Z" transform="translate(-473.822 -325.326)" fill="#666"/><path d="M597.562,331.039a.942.942,0,0,1-1.011.945h-.11a4.094,4.094,0,0,0-3.406,1.933v6.68a1,1,0,0,1-1.011.989.985.985,0,0,1-.989-.989v-9.426a1,1,0,0,1,.989-1.011,1.022,1.022,0,0,1,1.011,1.011v.945a4.457,4.457,0,0,1,3.45-2.065h.11A.966.966,0,0,1,597.562,331.039Z" transform="translate(-484.78 -325.326)" fill="#666"/><path d="M616.327,339.872a.915.915,0,0,1-.439.769,6.237,6.237,0,0,1-3.582,1.054,5.823,5.823,0,1,1,0-11.646,6.237,6.237,0,0,1,3.582,1.055.914.914,0,0,1,.439.769.9.9,0,0,1-.835.879.846.846,0,0,1-.483-.132,4.836,4.836,0,0,0-2.527-.7,3.956,3.956,0,1,0,0,7.911,4.831,4.831,0,0,0,2.527-.7.846.846,0,0,1,.483-.132A.9.9,0,0,1,616.327,339.872Z" transform="translate(-491.527 -325.326)" fill="#666"/><path d="M639.026,339.916a1,1,0,0,1-.572.813,6.867,6.867,0,0,1-3.845.967c-3.582,0-5.691-2.131-5.691-5.823,0-2.966,1.6-5.823,5.252-5.823,3.383,0,5.229,2.615,5.229,5.537a.963.963,0,0,1-1.01.989H630.94c.22,1.977,1.473,3.252,3.845,3.252a5.979,5.979,0,0,0,2.966-.681.8.8,0,0,1,.4-.088A.862.862,0,0,1,639.026,339.916Zm-8.087-4.966h6.482a3.241,3.241,0,0,0-6.482,0Z" transform="translate(-501.371 -325.326)" fill="#666"/><path d="M667.883,323.44a1.126,1.126,0,0,1-1.121,1.121h-.132a1.126,1.126,0,0,1-1.121-1.121v-.088a1.126,1.126,0,0,1,1.121-1.121h.132a1.126,1.126,0,0,1,1.121,1.121Zm-.2,4.306v9.426a1,1,0,0,1-2,0v-9.426a1,1,0,1,1,2,0Z" transform="translate(-517.398 -321.902)" fill="#666"/><path d="M687.3,334.357v6.24a1,1,0,0,1-1.011.989.985.985,0,0,1-.989-.989v-6.02c0-1.67-.7-2.681-2.417-2.681a4.7,4.7,0,0,0-3.6,2.11V340.6a1,1,0,0,1-1.011.989.985.985,0,0,1-.989-.989v-9.426a.99.99,0,0,1,.989-1.011,1.008,1.008,0,0,1,1.011,1.011v.9a5.306,5.306,0,0,1,4.087-2.022C685.868,330.05,687.3,332.006,687.3,334.357Z" transform="translate(-522.551 -325.326)" fill="#666"/><path d="M707.779,338.99a.818.818,0,0,1-.506.769,4.278,4.278,0,0,1-1.824.4c-1.032,0-3.207-.175-3.207-2.9v-6.811h-1.56a.4.4,0,0,1-.418-.418.492.492,0,0,1,.2-.374l2.988-2.922a.552.552,0,0,1,.373-.2.423.423,0,0,1,.418.44v1.758h2.483a.857.857,0,0,1,0,1.714h-2.483v6.635c0,1.3.878,1.319,1.428,1.319a11.638,11.638,0,0,0,1.318-.2A.8.8,0,0,1,707.779,338.99Z" transform="translate(-532.619 -323.785)" fill="#666"/><path d="M728,339.916a1,1,0,0,1-.571.813,6.869,6.869,0,0,1-3.845.967c-3.581,0-5.691-2.131-5.691-5.823,0-2.966,1.6-5.823,5.251-5.823,3.383,0,5.23,2.615,5.23,5.537a.964.964,0,0,1-1.011.989h-7.449c.22,1.977,1.472,3.252,3.845,3.252a5.981,5.981,0,0,0,2.966-.681.806.806,0,0,1,.4-.088A.862.862,0,0,1,728,339.916Zm-8.086-4.966H726.4a3.241,3.241,0,0,0-6.482,0Z" transform="translate(-540.341 -325.326)" fill="#666"/><path d="M745.227,322.656v14.26a1,1,0,0,1-2,0v-14.26a1,1,0,1,1,2,0Z" transform="translate(-551.436 -321.645)" fill="#666"/><path d="M757.056,323.44a1.126,1.126,0,0,1-1.121,1.121H755.8a1.126,1.126,0,0,1-1.12-1.121v-.088a1.126,1.126,0,0,1,1.12-1.121h.132a1.126,1.126,0,0,1,1.121,1.121Zm-.2,4.306v9.426a1,1,0,0,1-2,0v-9.426a1,1,0,1,1,2,0Z" transform="translate(-556.453 -321.902)" fill="#666"/><path d="M776.312,331.171v9.822c0,3.691-1.868,5.757-5.163,5.757a10.422,10.422,0,0,1-4.7-1.143.814.814,0,0,1-.4-.769.914.914,0,0,1,.878-.9,1.053,1.053,0,0,1,.4.088,8.024,8.024,0,0,0,3.625.835c2.241,0,3.362-1.208,3.362-3.582v-1.472a4.959,4.959,0,0,1-3.757,1.67,5.728,5.728,0,0,1,0-11.426,4.957,4.957,0,0,1,3.757,1.67v-.55a1,1,0,0,1,.989-1.011A1.022,1.022,0,0,1,776.312,331.171Zm-2,2.329a4.533,4.533,0,0,0-3.34-1.626,3.892,3.892,0,0,0,0,7.779,4.531,4.531,0,0,0,3.34-1.626Z" transform="translate(-561.075 -325.326)" fill="#666"/><path d="M801.617,339.916a1,1,0,0,1-.572.813,6.865,6.865,0,0,1-3.845.967c-3.582,0-5.691-2.131-5.691-5.823,0-2.966,1.6-5.823,5.252-5.823,3.383,0,5.23,2.615,5.23,5.537a.964.964,0,0,1-1.011.989H793.53c.22,1.977,1.473,3.252,3.846,3.252a5.976,5.976,0,0,0,2.966-.681.809.809,0,0,1,.4-.088A.862.862,0,0,1,801.617,339.916Zm-8.087-4.966h6.483a3.241,3.241,0,0,0-6.483,0Z" transform="translate(-572.581 -325.326)" fill="#666"/><path d="M826.549,334.357v6.24a1,1,0,0,1-1.011.989.984.984,0,0,1-.989-.989v-6.02c0-1.67-.7-2.681-2.417-2.681a4.7,4.7,0,0,0-3.6,2.11V340.6a1,1,0,0,1-1.011.989.985.985,0,0,1-.989-.989v-9.426a.99.99,0,0,1,.989-1.011,1.008,1.008,0,0,1,1.011,1.011v.9a5.31,5.31,0,0,1,4.088-2.022C825.12,330.05,826.549,332.006,826.549,334.357Z" transform="translate(-583.539 -325.326)" fill="#666"/><path d="M847.031,338.99a.818.818,0,0,1-.505.769,4.278,4.278,0,0,1-1.824.4c-1.032,0-3.208-.175-3.208-2.9v-6.811h-1.56a.4.4,0,0,1-.418-.418.492.492,0,0,1,.2-.374l2.988-2.922a.555.555,0,0,1,.374-.2.423.423,0,0,1,.418.44v1.758h2.482a.857.857,0,1,1,0,1.714h-2.482v6.635c0,1.3.879,1.319,1.428,1.319a11.692,11.692,0,0,0,1.318-.2A.8.8,0,0,1,847.031,338.99Z" transform="translate(-593.607 -323.785)" fill="#666"/><path d="M867.255,339.916a1,1,0,0,1-.571.813,6.868,6.868,0,0,1-3.845.967c-3.582,0-5.691-2.131-5.691-5.823,0-2.966,1.6-5.823,5.252-5.823,3.384,0,5.229,2.615,5.229,5.537a.963.963,0,0,1-1.01.989h-7.449c.22,1.977,1.473,3.252,3.845,3.252a5.98,5.98,0,0,0,2.967-.681.8.8,0,0,1,.4-.088A.862.862,0,0,1,867.255,339.916Zm-8.086-4.966h6.482a3.241,3.241,0,0,0-6.482,0Z" transform="translate(-601.329 -325.326)" fill="#666"/></g></g></g><path d="M363.7,301.775Z" transform="translate(-123.656 -60.303)" fill="#aa5e1c"/><path d="M240.032,239.455a2.145,2.145,0,0,1,0-.33l-.055-2.818c0-.446-.029-.825-.056-1.208l-.133-1.9c-.012-.15-.025-.327-.036-.51l-.006-.085c-.02-.292-.042-.6-.078-.9l-.176-1.462c-.2-1.9-.536-3.761-.865-5.559l-.73-3.326c-.078-.388-.173-.723-.271-1.074l-.523-1.886a75.864,75.864,0,0,0-4.139-11.032,79.8,79.8,0,0,0-5.723-10.077,75.382,75.382,0,0,0-15.119-16.462,72.183,72.183,0,0,0-8.928-6.209,73.484,73.484,0,0,0-9.546-4.785l-2.458-.982c-.49-.176-1.05-.369-1.608-.561l-2.031-.694L185.529,167c-.559-.163-1.109-.324-1.718-.484l-2.459-.582q-.169-.038-.432-.1c-.255-.062-.51-.124-.747-.164l-1.285-.239c-.262-.046-.538-.1-.813-.15-.549-.1-1.1-.205-1.684-.293L173.5,164.6c-.266-.036-.523-.071-.8-.094l-1.713-.141c-.7-.056-1.4-.112-2.165-.164l-3.188-.1c-.051,0-.1-.006-.153-.012a2.534,2.534,0,0,0-.333,0l-.991.02c-.344.008-.7.015-1.064.021l-.122,0c-1.166.02-2.371.039-3.5.143l-2.342.166c-.314.016-.582.049-.869.084l-1.494.18a82.8,82.8,0,0,0-45.154,20.269,85.372,85.372,0,0,0-9.744,10.2l-1.544,1.945c-.1.124-.2.262-.3.411l-2.065,2.87-.547.837c-.976,1.487-1.9,2.891-2.716,4.358-.817,1.343-1.521,2.707-2.2,4.03l-.571,1.1c-.256.521-.513,1.08-.764,1.633l-.934,2.038c-.121.262-.226.523-.338.806-.052.135-.11.275-.167.419a83.739,83.739,0,0,0-4.987,16.937l-.324,1.765c-.052.314-.1.662-.144,1.018l-.21,1.569c-.093.695-.179,1.33-.252,2.009l-.312,3.912c-.009.115-.017.232-.023.354l-.1,3.323a.554.554,0,0,0,.54.571L96,247.446a.533.533,0,0,0,.4-.154.554.554,0,0,0,.171-.389l.063-3.341c0-.1.008-.172.015-.255l.206-2.906c.048-.506.107-.986.169-1.488.039-.315.079-.641.115-.95l.06-.51c.03-.269.064-.559.1-.8l.253-1.471a68.765,68.765,0,0,1,3.907-13.927c.051-.126.094-.238.132-.343l.029-.076c.074-.2.151-.4.246-.61l.438-.981c.105-.233.2-.457.3-.681l.1-.228c.171-.388.342-.776.5-1.113.213-.419.4-.784.585-1.158.511-1.022,1.039-2.078,1.673-3.141.584-1.091,1.265-2.162,1.987-3.3l.628-.989,1.694-2.422c.074-.107.156-.225.238-.33l1.251-1.614a71.012,71.012,0,0,1,7.956-8.546,68.721,68.721,0,0,1,37.276-17.291l1.256-.17c.245-.034.452-.062.724-.078l1.961-.163c.871-.1,1.786-.123,2.762-.15l.076,0,.08,0c.332-.01.665-.019,1.008-.034l.872-.028,3.24.061,2.931.2c.178.011.379.037.582.062l2.4.287c.455.062.869.135,1.285.209.28.049.533.094.772.133l1.076.183c.169.026.365.07.6.125.162.038.264.062.342.078l2.018.448c.482.121.9.238,1.318.356l.828.229,2.757.856c.434.142.837.274,1.243.415l1.965.76a62.07,62.07,0,0,1,15.348,8.872,62.357,62.357,0,0,1,12.679,13.457,66.943,66.943,0,0,1,4.854,8.3,63.024,63.024,0,0,1,3.55,9.109l.491,1.679c.072.242.144.49.209.8l.573,2.4.13.672c.269,1.384.547,2.815.715,4.3l.163,1.2c.034.252.053.5.072.749.016.216.026.361.039.484l.135,1.619c.029.336.054.641.057,1.006l.083,2.483c0,.055.008.191.007.248l-.055,2.873a2.28,2.28,0,0,1-.013.28l-.13,1.842c-.018.486-.09,1.072-.168,1.691-.033.259-.062.5-.083.69-.028.208-.044.358-.06.5l-.011.1c-.028.241-.056.481-.1.726l-.428,2.5-.293,1.312a55.378,55.378,0,0,1-3.206,9.922,55.952,55.952,0,0,1-52.5,33.764l-.917-.017c-.249,0-.444-.007-.675-.03l-2.012-.141c-.084,0-.214-.02-.349-.037l-1.775-.214c-.306-.028-.685-.093-1.088-.162l-1.655-.283c-.305-.055-.581-.118-.863-.183l-.52-.116c-.211-.049-.382-.087-.555-.124l-.079-.016c-.269-.06-.541-.119-.833-.2a51.419,51.419,0,0,1-10.789-4.137c-.3-.142-.582-.3-.872-.47l-1.6-.9-1.565-.986c-.326-.2-.632-.4-.963-.639l-.556-.39c-.628-.438-1.222-.853-1.818-1.337l-1.09-.845-1.727-1.473c-.1-.083-.2-.182-.31-.283l-1.333-1.256-.964-.977c-.144-.152-.264-.275-.409-.423-.248-.255-.448-.46-.626-.658l-1.034-1.179L131.87,276.1c-.215-.275-.39-.519-.567-.768l-.338-.467a52.77,52.77,0,0,1-3.178-4.988l-.894-1.71c-.173-.326-.341-.647-.5-1.029l-.284-.614c-.3-.635-.629-1.354-.923-2.134a48.966,48.966,0,0,1-3.14-11.531l-.2-1.519-.264-2.968-.079-2.434a.576.576,0,0,0-.007-.076,1.618,1.618,0,0,1,0-.546.6.6,0,0,0,.008-.084l.033-1.709c0-.119,0-.192.007-.245l.128-1.789.248-2.217.363-2.23.482-2.242A45.31,45.31,0,0,1,139.2,209.608c.131-.111.292-.228.457-.346l1.417-1.024c.1-.071.218-.15.343-.23l1.54-1,1.636-.958c.145-.087.276-.164.4-.227l.682-.355c.191-.1.36-.186.529-.275.316-.167.592-.312.869-.441l1.476-.678,1.4-.582c.688-.3,1.4-.54,2.149-.8l.7-.244c.343-.114.645-.2.948-.287l.08-.024c.188-.053.347-.1.494-.143l.73-.214c.2-.054.358-.092.527-.131l1.741-.415,1.875-.35c.17-.033.313-.06.4-.074l1.452-.2c.35-.048.645-.088.878-.115l1.932-.162c.17-.016.327-.029.506-.033l2.061-.066a.447.447,0,0,0,.047,0h0a2.076,2.076,0,0,1,.32,0l1.6.031,2.173.135c.171.012.327.031.487.052l.881.106c.316.036.641.074.923.117l1.518.26a43.561,43.561,0,0,1,6.042,1.625,44.3,44.3,0,0,1,5.724,2.556,40.544,40.544,0,0,1,5.215,3.372c.2.157.351.274.505.391.277.212.529.406.771.612l1.222,1.046.3.28c.681.632,1.325,1.228,1.97,1.923a40.74,40.74,0,0,1,7.187,10.214,44.073,44.073,0,0,1,2.352,5.888,41.2,41.2,0,0,1,1.4,6.129l.211,1.58.142,1.685c.03.266.042.62.052.993.005.2.01.366.016.507l.035,1.058-.031,1.567c0,.255-.008.464-.033.715l-.094,1.368-.094.794a39.235,39.235,0,1,0-64.961,30.887c2.01-6.991,7.961-29.2,6.453-41.615l-7.105,3.365-1.994-7.037,16.377-7.934s3.933,6.4,2.814,22.122a24.819,24.819,0,0,1,12.745-3.769c-.013,0-.029-.007-.042-.009l.418-2.5-2.055-.354a2.531,2.531,0,0,1-2.011-2.79l.132-.766a2.533,2.533,0,0,1,2.833-1.951l6.049,1.045a2.348,2.348,0,0,1,1.79,2.754l-.13.773a2.353,2.353,0,0,1-2.611,1.988l-2.271-.4-.377,2.23a26.521,26.521,0,0,1,10.547,2.806l.946-1.923-1.867-.929a2.531,2.531,0,0,1-1.124-3.251l.346-.7a2.532,2.532,0,0,1,3.274-1.054l5.493,2.738a2.348,2.348,0,0,1,.922,3.152l-.346.7a2.354,2.354,0,0,1-3.073,1.155l-2.06-1.031-.981,1.985a26.882,26.882,0,0,1,7.875,6.982l1.691-1.539-1.395-1.549a2.531,2.531,0,0,1,.146-3.436l.578-.52a2.532,2.532,0,0,1,3.433.219l4.106,4.562a2.348,2.348,0,0,1-.3,3.27l-.58.527a2.353,2.353,0,0,1-3.282-.052l-1.539-1.714-1.859,1.685a23.185,23.185,0,0,1,.7,24.651A42.964,42.964,0,0,0,209.3,263.375a43.885,43.885,0,0,0,5.485-14.3L215,247.9c.042-.226.082-.45.1-.642l.261-1.978.155-1.941c.028-.292.034-.513.042-.771l.043-1.423c.009-.17.013-.442.008-.6l-.03-1.552c-.007-.441-.015-.886-.05-1.278l-.14-1.969-.231-1.906a49.174,49.174,0,0,0-1.587-7.4,52.353,52.353,0,0,0-2.74-7.123,49.217,49.217,0,0,0-8.532-12.462c-.823-.9-1.689-1.723-2.539-2.527l-1.634-1.447c-.3-.262-.63-.522-.959-.781-.168-.132-.336-.265-.541-.431a49.162,49.162,0,0,0-6.293-4.185,48.716,48.716,0,0,0-14.255-5.273l-1.854-.341c-.378-.062-.8-.117-1.214-.171l-.948-.126c-.214-.029-.417-.057-.65-.078l-2.477-.2-2.065-.064c-.184-.01-.457-.01-.608-.006l-2.35.047c-.218,0-.419.017-.628.033l-2.257.16c-.359.036-.778.087-1.2.139l-1.593.2c-.133.02-.306.05-.483.08l-2.265.393-2.132.479c-.2.045-.4.088-.62.147l-1.529.424c-.387.107-.771.212-1.181.342l-.707.234c-.922.3-1.874.617-2.757.979l-1.376.537-2.121.944c-.365.165-.733.352-1.1.54-.185.094-.374.191-.582.293l-.831.421c-.168.087-.343.187-.519.287l-1.935,1.1-1.825,1.156c-.181.113-.353.221-.5.328l-1.641,1.152c-.22.154-.437.306-.654.481A54.976,54.976,0,0,0,113.19,232.47l-.522,2.214-.5,2.726-.366,2.742-.229,2.864c-.005.071-.007.151-.01.231l-.067,2.191,0,.083c-.007.12-.005.388,0,.535l.055,2.785.224,3.182.27,2.236a59.078,59.078,0,0,0,3.607,13.937c.354.965.753,1.857,1.139,2.719l.271.609c.194.455.395.854.609,1.276l1.031,2.029a64,64,0,0,0,3.752,6.064l.348.5c.232.333.459.657.71.989l1.651,2.124,1.742,2.034c.24.275.509.558.778.842l1.34,1.419.017.018,1.819,1.759c.138.134.271.262.4.378l2.072,1.813c.235.193.518.416.8.644l.493.392c.763.629,1.542,1.188,2.3,1.733l.543.391c.41.305.805.561,1.186.808l1.827,1.184,1.935,1.129c.365.214.719.42,1.05.583a62.264,62.264,0,0,0,13.1,5.215c.375.1.735.189,1.095.273l.089.021c.194.046.37.087.573.137l.606.143c.36.086.712.169,1.094.245l1.919.356c.487.09.992.183,1.452.236l2.076.275c.191.026.369.051.541.063l2.711.217c.294.026.515.033.733.039l.912.028q1.076.035,2.153.035A67.307,67.307,0,0,0,219.309,288a68.2,68.2,0,0,0,14.839-21.137,67.5,67.5,0,0,0,4.066-12.047l.366-1.56.569-3.077c.057-.32.1-.647.15-1.025.021-.165.044-.345.074-.559l.1-.742c.1-.719.21-1.535.26-2.34l.191-2.434c.012-.132.013-.211.016-.285l.094-2.969A2.042,2.042,0,0,0,240.032,239.455Z" transform="translate(0)" fill="#77932c"/></g></svg>